<?xml version="1.0" standalone="no"?><!DOCTYPE svg PUBLIC "-//W3C//DTD SVG 1.1//EN" "http://www.w3.org/Graphics/SVG/1.1/DTD/svg11.dtd"><svg t="1717331605604" class="icon" viewBox="0 0 1024 1024" version="1.1" xmlns="http://www.w3.org/2000/svg" p-id="2545" xmlns:xlink="http://www.w3.org/1999/xlink" ><path d="M256 849.066667c-4.266667 0-8.533333-4.266667-12.8-4.266667-4.266667-4.266667-4.266667-8.533333-4.266667-12.8l4.266667-115.2c-42.666667-59.733333-68.266667-128-68.266667-200.533333 0-187.733333 149.333333-337.066667 337.066667-337.066667s337.066667 149.333333 337.066667 337.066667S699.733333 853.333333 512 853.333333h-25.6L256 849.066667z m230.4-38.4h25.6c166.4 0 298.666667-132.266667 298.666667-298.666667s-132.266667-298.666667-298.666667-298.666667-298.666667 132.266667-298.666667 298.666667c0 68.266667 21.333333 132.266667 64 183.466667 4.266667 4.266667 4.266667 8.533333 4.266667 12.8L277.333333 810.666667h209.066667z" fill="" p-id="2546"></path><path d="M507.733333 652.8h-8.533333c-29.866667-12.8-123.733333-128-123.733333-170.666667s38.4-81.066667 81.066666-81.066666c17.066667 0 34.133333 4.266667 51.2 17.066666 12.8-12.8 29.866667-17.066667 51.2-17.066666 42.666667 0 81.066667 38.4 81.066667 81.066666 0 38.4-93.866667 157.866667-123.733333 170.666667h-8.533334c4.266667 0 4.266667 0 0 0z m4.266667-17.066667c25.6-8.533333 110.933333-119.466667 110.933333-149.333333 0-34.133333-25.6-59.733333-59.733333-59.733333-17.066667 0-29.866667 8.533333-42.666667 17.066666 0 0-4.266667 4.266667-8.533333 4.266667s-4.266667 0-8.533333-4.266667c-12.8-12.8-25.6-17.066667-42.666667-17.066666-34.133333 0-59.733333 25.6-59.733333 59.733333 0 29.866667 85.333333 140.8 110.933333 149.333333z"  p-id="2547"></path></svg>