<?xml version="1.0" standalone="no"?><!DOCTYPE svg PUBLIC "-//W3C//DTD SVG 1.1//EN" "http://www.w3.org/Graphics/SVG/1.1/DTD/svg11.dtd"><svg t="1717476168518" class="icon" viewBox="0 0 1024 1024" version="1.1" xmlns="http://www.w3.org/2000/svg" p-id="2489" xmlns:xlink="http://www.w3.org/1999/xlink" width="256" height="256"><path d="M674.0992 381.184c4.1984 0 8.3456 0.1024 12.4928 0.3072-21.8624-118.8864-144.64-209.92-292.9152-209.92-163.6864 0-296.3456 110.9504-296.3456 247.8592 0 80.2304 45.568 151.6032 116.3264 196.864 0.9216 0.5632 2.7136 1.7408 2.7136 1.7408l-28.672 89.7024 107.1104-54.5792s3.328 0.9728 5.0176 1.4336c29.44 8.192 60.9792 12.6464 93.7472 12.6464 6.7072 0 13.312-0.256 19.9168-0.6144-6.0928-18.8416-9.4208-38.656-9.4208-59.136 0.1024-125.0304 120.9856-226.304 270.0288-226.304M496.7936 293.6832c22.9888 0 41.5744 18.0224 41.5744 40.2944 0 22.2208-18.5856 40.2944-41.5744 40.2944-22.9888 0-41.6256-18.0736-41.6256-40.2944 0-22.2208 18.6368-40.2944 41.6256-40.2944M290.56 374.272c-22.9888 0-41.5744-18.0736-41.5744-40.2944 0-22.272 18.6368-40.2944 41.5744-40.2944 22.9888 0 41.6256 18.0224 41.6256 40.2944S313.5488 374.272 290.56 374.272" fill="#3EB135" p-id="2490"></path><path d="M425.984 608.9216c0 115.6608 112.128 209.408 250.4192 209.408 27.648 0 54.3232-3.7888 79.2064-10.7008 1.4336-0.3584 4.2496-1.2288 4.2496-1.2288l90.4704 46.1312-24.1664-75.776s1.536-0.9728 2.304-1.4336c59.6992-38.2464 98.2528-98.5088 98.2528-166.3488 0-115.6096-112.0768-209.3568-250.2656-209.3568-138.3936-0.0512-250.4704 93.6448-250.4704 209.3056m302.2848-72.1408c0-18.7904 15.7184-33.9968 35.1232-33.9968 19.456 0 35.1744 15.2064 35.1744 33.9968s-15.7184 34.048-35.1744 34.048c-19.4048 0.0512-35.1232-15.2064-35.1232-34.048m-174.2336 0c0-18.7904 15.7184-33.9968 35.1744-33.9968s35.1744 15.2064 35.1744 33.9968-15.7696 34.048-35.1744 34.048-35.1744-15.2064-35.1744-34.048" fill="#3EB135" p-id="2491"></path></svg>